<svg width="489pt" height="805pt" viewBox="0.00 0.00 489.24 804.84" xmlns="http://www.w3.org/2000/svg" xmlns:xlink="http://www.w3.org/1999/xlink">
<g id="graph0" class="graph" transform="scale(1 1) rotate(0) translate(4 800.84)">
<title>g</title>
<polygon fill="white" stroke="none" points="-4,4 -4,-800.84 485.24,-800.84 485.24,4 -4,4"/>
<!-- s0 -->
<g id="node1" class="node">
<title>s0</title>
<ellipse fill="none" stroke="green" cx="82.98" cy="-740.4" rx="44.29" ry="18"/>
<text text-anchor="middle" x="82.98" y="-736.2" font-family="Times,serif" font-size="14.00">LISTEN</text>
</g>
<!-- s1 -->
<g id="node2" class="node">
<title>s1</title>
<ellipse fill="none" stroke="red" cx="225.98" cy="-552" rx="49.12" ry="18"/>
<text text-anchor="middle" x="225.98" y="-547.8" font-family="Times,serif" font-size="14.00">LISTEN2</text>
</g>
<!-- s0&#45;&gt;s1 -->
<g id="edge2" class="edge">
<title>s0-&gt;s1</title>
<path fill="none" stroke="black" d="M95.67,-722.86C120.62,-690.33 176.24,-617.83 206.11,-578.9"/>
<polygon fill="black" stroke="black" points="208.88,-581.04 212.19,-570.97 203.32,-576.78 208.88,-581.04"/>
<text text-anchor="middle" x="206.28" y="-691.8" font-family="Times,serif" font-size="14.00">A / R </text>
<text text-anchor="middle" x="206.28" y="-675" font-family="Times,serif" font-size="14.00"> SA / R </text>
<text text-anchor="middle" x="206.28" y="-658.2" font-family="Times,serif" font-size="14.00"> F / RA </text>
<text text-anchor="middle" x="206.28" y="-641.4" font-family="Times,serif" font-size="14.00"> FA / R </text>
<text text-anchor="middle" x="206.28" y="-624.6" font-family="Times,serif" font-size="14.00"> P / RA </text>
<text text-anchor="middle" x="206.28" y="-607.8" font-family="Times,serif" font-size="14.00"> PA / R</text>
</g>
<!-- s2 -->
<g id="node3" class="node">
<title>s2</title>
<ellipse fill="none" stroke="green" cx="77.98" cy="-430.8" rx="60.94" ry="18"/>
<text text-anchor="middle" x="77.98" y="-426.6" font-family="Times,serif" font-size="14.00">SYN_RECV</text>
</g>
<!-- s0&#45;&gt;s2 -->
<g id="edge1" class="edge">
<title>s0-&gt;s2</title>
<path fill="none" stroke="green" d="M82.69,-721.98C81.87,-671.22 79.46,-523.09 78.44,-460.38"/>
<polygon fill="green" stroke="green" points="81.94,-460.48 78.28,-450.54 74.95,-460.6 81.94,-460.48"/>
<text text-anchor="middle" x="98.76" y="-547.8" font-family="Times,serif" font-size="14.00">S / SA</text>
</g>
<!-- s1&#45;&gt;s1 -->
<g id="edge4" class="edge">
<title>s1-&gt;s1</title>
<path fill="none" stroke="black" d="M262.23,-564.6C278.74,-565.89 293.1,-561.69 293.1,-552 293.1,-544.66 284.86,-540.47 273.67,-539.43"/>
<polygon fill="black" stroke="black" points="273.75,-535.93 263.74,-539.41 273.73,-542.93 273.75,-535.93"/>
<text text-anchor="middle" x="315.66" y="-573" font-family="Times,serif" font-size="14.00">A / R </text>
<text text-anchor="middle" x="315.66" y="-556.2" font-family="Times,serif" font-size="14.00"> SA / R </text>
<text text-anchor="middle" x="315.66" y="-539.4" font-family="Times,serif" font-size="14.00"> FA / R </text>
<text text-anchor="middle" x="315.66" y="-522.6" font-family="Times,serif" font-size="14.00"> PA / R</text>
</g>
<!-- s1&#45;&gt;s2 -->
<g id="edge3" class="edge">
<title>s1-&gt;s2</title>
<path fill="none" stroke="black" d="M218,-533.88C207.57,-512.11 189.29,-476.22 177.98,-466.8 166.55,-457.28 152.36,-450.28 138.29,-445.16"/>
<polygon fill="black" stroke="black" points="139.64,-441.92 129.05,-442.08 137.43,-448.56 139.64,-441.92"/>
<text text-anchor="middle" x="219.04" y="-479.4" font-family="Times,serif" font-size="14.00">S / SA</text>
</g>
<!-- s2&#45;&gt;s1 -->
<g id="edge8" class="edge">
<title>s2-&gt;s1</title>
<path fill="none" stroke="black" d="M78.67,-449.06C80.16,-464.32 84.58,-486.27 97.37,-500.4 116.3,-521.32 144.98,-533.7 170.46,-540.97"/>
<polygon fill="black" stroke="black" points="169.49,-544.33 180.05,-543.48 171.26,-537.56 169.49,-544.33"/>
<text text-anchor="middle" x="135.67" y="-487.8" font-family="Times,serif" font-size="14.00">R / timeout </text>
<text text-anchor="middle" x="135.67" y="-471" font-family="Times,serif" font-size="14.00"> RA / timeout</text>
</g>
<!-- s2&#45;&gt;s2 -->
<g id="edge5" class="edge">
<title>s2-&gt;s2</title>
<path fill="none" stroke="black" d="M129.6,-440.68C144.96,-440.38 156.92,-437.09 156.92,-430.8 156.92,-426.18 150.47,-423.18 140.96,-421.79"/>
<polygon fill="black" stroke="black" points="141.35,-418.31 131.11,-421.04 140.82,-425.29 141.35,-418.31"/>
<text text-anchor="middle" x="175.2" y="-426.6" font-family="Times,serif" font-size="14.00">S / SA</text>
</g>
<!-- s3 -->
<g id="node4" class="node">
<title>s3</title>
<ellipse fill="none" stroke="red" cx="128.98" cy="-33.6" rx="83.47" ry="18"/>
<text text-anchor="middle" x="128.98" y="-29.4" font-family="Times,serif" font-size="14.00">UNRESPONSIVE</text>
</g>
<!-- s2&#45;&gt;s3 -->
<g id="edge7" class="edge">
<title>s2-&gt;s3</title>
<path fill="none" stroke="black" d="M49.15,-414.61C40.87,-409.21 32.36,-402.52 25.98,-394.8 0.4,-363.86 -4.31,-346.48 3.98,-307.2 24.25,-211.09 82.53,-108.59 111.79,-61.31"/>
<polygon fill="black" stroke="black" points="114.59,-63.44 116.93,-53.11 108.65,-59.72 114.59,-63.44"/>
<text text-anchor="middle" x="38.8" y="-276.6" font-family="Times,serif" font-size="14.00">SA / R </text>
<text text-anchor="middle" x="38.8" y="-259.8" font-family="Times,serif" font-size="14.00"> FA / R</text>
</g>
<!-- s4 -->
<g id="node5" class="node">
<title>s4</title>
<ellipse fill="none" stroke="red" cx="88.98" cy="-325.2" rx="76.48" ry="18"/>
<text text-anchor="middle" x="88.98" y="-321" font-family="Times,serif" font-size="14.00">CLOSE_WAIT2</text>
</g>
<!-- s2&#45;&gt;s4 -->
<g id="edge9" class="edge">
<title>s2-&gt;s4</title>
<path fill="none" stroke="black" d="M76.78,-412.5C76.13,-398.56 75.93,-378.51 78.53,-361.2 78.86,-358.99 79.3,-356.72 79.81,-354.46"/>
<polygon fill="black" stroke="black" points="83.17,-355.45 82.39,-344.89 76.41,-353.63 83.17,-355.45"/>
<text text-anchor="middle" x="109.25" y="-373.8" font-family="Times,serif" font-size="14.00">F / timeout</text>
</g>
<!-- s5 -->
<g id="node6" class="node">
<title>s5</title>
<ellipse fill="none" stroke="green" cx="269.98" cy="-325.2" rx="75.95" ry="18"/>
<text text-anchor="middle" x="269.98" y="-321" font-family="Times,serif" font-size="14.00">ESTABLISHED</text>
</g>
<!-- s2&#45;&gt;s5 -->
<g id="edge6" class="edge">
<title>s2-&gt;s5</title>
<path fill="none" stroke="green" d="M106.31,-414.51C139.11,-396.82 193.35,-367.55 230.33,-347.59"/>
<polygon fill="green" stroke="green" points="231.8,-350.78 238.93,-342.95 228.47,-344.62 231.8,-350.78"/>
<text text-anchor="middle" x="239.92" y="-382.2" font-family="Times,serif" font-size="14.00">A / timeout </text>
<text text-anchor="middle" x="239.92" y="-365.4" font-family="Times,serif" font-size="14.00"> PA / timeout</text>
</g>
<!-- s3&#45;&gt;s3 -->
<g id="edge10" class="edge">
<title>s3-&gt;s3</title>
<path fill="none" stroke="black" d="M177.26,-48.73C204.84,-51.75 230.45,-46.7 230.45,-33.6 230.45,-22.34 211.54,-17.03 188.72,-17.68"/>
<polygon fill="black" stroke="black" points="188.51,-14.18 178.77,-18.37 188.99,-21.17 188.51,-14.18"/>
<text text-anchor="middle" x="253.01" y="-54.6" font-family="Times,serif" font-size="14.00">A / R </text>
<text text-anchor="middle" x="253.01" y="-37.8" font-family="Times,serif" font-size="14.00"> SA / R </text>
<text text-anchor="middle" x="253.01" y="-21" font-family="Times,serif" font-size="14.00"> FA / R </text>
<text text-anchor="middle" x="253.01" y="-4.2" font-family="Times,serif" font-size="14.00"> PA / R</text>
</g>
<!-- s4&#45;&gt;s1 -->
<g id="edge13" class="edge">
<title>s4-&gt;s1</title>
<path fill="none" stroke="black" d="M149.06,-336.68C187.87,-344.06 232.18,-353.88 237.98,-361.2 257.19,-385.45 241.57,-469.68 237.98,-500.4 237.12,-507.73 235.59,-515.53 233.9,-522.76"/>
<polygon fill="black" stroke="black" points="230.52,-521.83 231.47,-532.38 237.31,-523.54 230.52,-521.83"/>
<text text-anchor="middle" x="278.77" y="-426.6" font-family="Times,serif" font-size="14.00">R / timeout</text>
</g>
<!-- s4&#45;&gt;s2 -->
<g id="edge11" class="edge">
<title>s4-&gt;s2</title>
<path fill="none" stroke="black" d="M54.38,-341.62C46.8,-346.72 39.74,-353.19 35.41,-361.2 28.3,-374.33 29.03,-381.3 35.41,-394.8 37.43,-399.08 40.26,-403.02 43.51,-406.58"/>
<polygon fill="black" stroke="black" points="40.88,-408.91 50.58,-413.17 45.65,-403.79 40.88,-408.91"/>
<text text-anchor="middle" x="53.69" y="-373.8" font-family="Times,serif" font-size="14.00">S / SA</text>
</g>
<!-- s4&#45;&gt;s3 -->
<g id="edge12" class="edge">
<title>s4-&gt;s3</title>
<path fill="none" stroke="black" d="M89.96,-307.07C91.72,-278.59 95.89,-219.78 102.85,-170.4 108.14,-132.92 116.82,-90.09 122.71,-62.72"/>
<polygon fill="black" stroke="black" points="126.09,-63.65 124.8,-53.14 119.25,-62.16 126.09,-63.65"/>
<text text-anchor="middle" x="125.42" y="-225" font-family="Times,serif" font-size="14.00">A / R </text>
<text text-anchor="middle" x="125.42" y="-208.2" font-family="Times,serif" font-size="14.00"> SA / R </text>
<text text-anchor="middle" x="125.42" y="-191.4" font-family="Times,serif" font-size="14.00"> FA / R </text>
<text text-anchor="middle" x="125.42" y="-174.6" font-family="Times,serif" font-size="14.00"> PA / R</text>
</g>
<!-- s5&#45;&gt;s1 -->
<g id="edge16" class="edge">
<title>s5-&gt;s1</title>
<path fill="none" stroke="black" d="M285.28,-343.21C304.59,-366.84 333.62,-410.96 318.98,-448.8 306.42,-481.25 278.25,-509.73 256.18,-528.33"/>
<polygon fill="black" stroke="black" points="254.17,-525.44 248.64,-534.48 258.6,-530.87 254.17,-525.44"/>
<text text-anchor="middle" x="361.26" y="-435" font-family="Times,serif" font-size="14.00">R / timeout </text>
<text text-anchor="middle" x="361.26" y="-418.2" font-family="Times,serif" font-size="14.00"> RA / timeout</text>
</g>
<!-- s5&#45;&gt;s3 -->
<g id="edge15" class="edge">
<title>s5-&gt;s3</title>
<path fill="none" stroke="black" d="M245.99,-307.79C225,-292.17 195.28,-266.75 178.35,-237.6 145.68,-181.34 134.55,-104.26 130.82,-63.15"/>
<polygon fill="black" stroke="black" points="134.32,-63.04 130.02,-53.36 127.35,-63.61 134.32,-63.04"/>
<text text-anchor="middle" x="199.17" y="-208.2" font-family="Times,serif" font-size="14.00">SA / R </text>
<text text-anchor="middle" x="199.17" y="-191.4" font-family="Times,serif" font-size="14.00"> FA / R</text>
</g>
<!-- s6 -->
<g id="node7" class="node">
<title>s6</title>
<ellipse fill="none" stroke="green" cx="300.98" cy="-204" rx="71.65" ry="18"/>
<text text-anchor="middle" x="300.98" y="-199.8" font-family="Times,serif" font-size="14.00">CLOSE_WAIT</text>
</g>
<!-- s5&#45;&gt;s6 -->
<g id="edge14" class="edge">
<title>s5-&gt;s6</title>
<path fill="none" stroke="black" d="M274.48,-306.87C279.49,-287.62 287.65,-256.26 293.59,-233.42"/>
<polygon fill="black" stroke="black" points="296.95,-234.38 296.08,-223.82 290.18,-232.62 296.95,-234.38"/>
<text text-anchor="middle" x="319.81" y="-276.6" font-family="Times,serif" font-size="14.00">S / A </text>
<text text-anchor="middle" x="319.81" y="-259.8" font-family="Times,serif" font-size="14.00"> F / timeout</text>
</g>
<!-- s6&#45;&gt;s1 -->
<g id="edge19" class="edge">
<title>s6-&gt;s1</title>
<path fill="none" stroke="black" d="M324.03,-221.51C335.08,-230.48 347.68,-242.42 355.98,-255.6 419.05,-355.82 432.83,-398.96 403.98,-448.8 376.71,-495.89 318.64,-523.17 276.21,-537.51"/>
<polygon fill="black" stroke="black" points="275.4,-534.1 266.96,-540.5 277.55,-540.76 275.4,-534.1"/>
<text text-anchor="middle" x="449.74" y="-373.8" font-family="Times,serif" font-size="14.00">R / timeout</text>
</g>
<!-- s6&#45;&gt;s3 -->
<g id="edge18" class="edge">
<title>s6-&gt;s3</title>
<path fill="none" stroke="black" d="M284.93,-186.38C262.6,-163.35 220.74,-120.58 183.98,-85.2 174.98,-76.54 164.97,-67.24 155.99,-59.01"/>
<polygon fill="black" stroke="black" points="158.62,-56.67 148.87,-52.51 153.9,-61.84 158.62,-56.67"/>
<text text-anchor="middle" x="273.65" y="-139.8" font-family="Times,serif" font-size="14.00">A / R </text>
<text text-anchor="middle" x="273.65" y="-123" font-family="Times,serif" font-size="14.00"> SA / R </text>
<text text-anchor="middle" x="273.65" y="-106.2" font-family="Times,serif" font-size="14.00"> FA / R </text>
<text text-anchor="middle" x="273.65" y="-89.4" font-family="Times,serif" font-size="14.00"> PA / R</text>
</g>
<!-- s6&#45;&gt;s6 -->
<g id="edge17" class="edge">
<title>s6-&gt;s6</title>
<path fill="none" stroke="black" d="M353.02,-216.76C373.51,-217.41 390.63,-213.15 390.63,-204 390.63,-196.56 379.33,-192.36 364.1,-191.39"/>
<polygon fill="black" stroke="black" points="364.58,-187.9 354.53,-191.26 364.48,-194.9 364.58,-187.9"/>
<text text-anchor="middle" x="405.02" y="-199.8" font-family="Times,serif" font-size="14.00">S / A</text>
</g>
<!-- __start0 -->
<g id="node8" class="node">
<title>__start0</title>
</g>
<!-- __start0&#45;&gt;s0 -->
<g id="edge20" class="edge">
<title>__start0-&gt;s0</title>
<path fill="none" stroke="black" d="M82.98,-795.25C82.98,-793.78 82.98,-782.19 82.98,-770.13"/>
<polygon fill="black" stroke="black" points="86.48,-770.26 82.98,-760.26 79.48,-770.26 86.48,-770.26"/>
</g>
</g>
</svg>