<svg width="935pt" height="822pt" viewBox="0.00 0.00 935.08 821.64" xmlns="http://www.w3.org/2000/svg" xmlns:xlink="http://www.w3.org/1999/xlink">
<g id="graph0" class="graph" transform="scale(1 1) rotate(0) translate(4 817.64)">
<title>g</title>
<polygon fill="white" stroke="none" points="-4,4 -4,-817.64 931.08,-817.64 931.08,4 -4,4"/>
<!-- s0 -->
<g id="node1" class="node">
<title>s0</title>
<ellipse fill="none" stroke="green" cx="396.47" cy="-741.6" rx="44.29" ry="18"/>
<text text-anchor="middle" x="396.47" y="-737.4" font-family="Times,serif" font-size="14.00">LISTEN</text>
</g>
<!-- s0&#45;&gt;s0 -->
<g id="edge2" class="edge">
<title>s0-&gt;s0</title>
<path fill="none" stroke="black" d="M434.49,-751.36C447.89,-751.52 458.77,-748.27 458.77,-741.6 458.77,-736.97 453.51,-733.98 445.8,-732.64"/>
<polygon fill="black" stroke="black" points="446.22,-729.17 436,-731.94 445.73,-736.15 446.22,-729.17"/>
<text text-anchor="middle" x="481.33" y="-762.6" font-family="Times,serif" font-size="14.00">A / R </text>
<text text-anchor="middle" x="481.33" y="-745.8" font-family="Times,serif" font-size="14.00"> SA / R </text>
<text text-anchor="middle" x="481.33" y="-729" font-family="Times,serif" font-size="14.00"> FA / R </text>
<text text-anchor="middle" x="481.33" y="-712.2" font-family="Times,serif" font-size="14.00"> PA / R</text>
</g>
<!-- s1 -->
<g id="node2" class="node">
<title>s1</title>
<ellipse fill="none" stroke="green" cx="89.47" cy="-603.6" rx="60.94" ry="18"/>
<text text-anchor="middle" x="89.47" y="-599.4" font-family="Times,serif" font-size="14.00">SYN_RECV</text>
</g>
<!-- s0&#45;&gt;s1 -->
<g id="edge1" class="edge">
<title>s0-&gt;s1</title>
<path fill="none" stroke="green" d="M352.06,-739.94C275.63,-737.77 124.18,-728.58 90.9,-690 77.71,-674.71 78.15,-651.52 81.45,-633.17"/>
<polygon fill="green" stroke="green" points="84.87,-633.93 83.59,-623.41 78.03,-632.43 84.87,-633.93"/>
<text text-anchor="middle" x="109.19" y="-660.6" font-family="Times,serif" font-size="14.00">S / SA</text>
</g>
<!-- s1&#45;&gt;s0 -->
<g id="edge3" class="edge">
<title>s1-&gt;s0</title>
<path fill="none" stroke="black" d="M109.89,-620.73C116.06,-626.26 122.5,-632.79 127.47,-639.6 142.03,-659.55 131.5,-674.67 150.86,-690 179.94,-713.03 279.12,-727.82 342.2,-735.13"/>
<polygon fill="black" stroke="black" points="341.7,-738.6 352.03,-736.24 342.49,-731.64 341.7,-738.6"/>
<text text-anchor="middle" x="189.17" y="-677.4" font-family="Times,serif" font-size="14.00">S / RA </text>
<text text-anchor="middle" x="189.17" y="-660.6" font-family="Times,serif" font-size="14.00"> R / timeout </text>
<text text-anchor="middle" x="189.17" y="-643.8" font-family="Times,serif" font-size="14.00"> RA / timeout</text>
</g>
<!-- s2 -->
<g id="node3" class="node">
<title>s2</title>
<ellipse fill="none" stroke="red" cx="83.47" cy="-343.2" rx="83.47" ry="18"/>
<text text-anchor="middle" x="83.47" y="-339" font-family="Times,serif" font-size="14.00">UNRESPONSIVE</text>
</g>
<!-- s1&#45;&gt;s2 -->
<g id="edge5" class="edge">
<title>s1-&gt;s2</title>
<path fill="none" stroke="black" d="M72.67,-585.86C67.88,-580.39 63.01,-574.06 59.47,-567.6 47.96,-546.59 47.36,-539.7 43.85,-516 36.24,-464.58 56.16,-405.79 70.43,-372.03"/>
<polygon fill="black" stroke="black" points="73.59,-373.53 74.4,-362.97 67.18,-370.72 73.59,-373.53"/>
<text text-anchor="middle" x="64.66" y="-502.2" font-family="Times,serif" font-size="14.00">SA / R </text>
<text text-anchor="middle" x="64.66" y="-485.4" font-family="Times,serif" font-size="14.00"> FA / R</text>
</g>
<!-- s3 -->
<g id="node4" class="node">
<title>s3</title>
<ellipse fill="none" stroke="green" cx="342.47" cy="-498" rx="75.95" ry="18"/>
<text text-anchor="middle" x="342.47" y="-493.8" font-family="Times,serif" font-size="14.00">ESTABLISHED</text>
</g>
<!-- s1&#45;&gt;s3 -->
<g id="edge4" class="edge">
<title>s1-&gt;s3</title>
<path fill="none" stroke="green" d="M123.76,-588.31C157.28,-574.37 209.8,-552.6 255.41,-534 268.02,-528.86 281.68,-523.34 294.36,-518.25"/>
<polygon fill="green" stroke="green" points="295.35,-521.62 303.33,-514.64 292.74,-515.12 295.35,-521.62"/>
<text text-anchor="middle" x="292.94" y="-555" font-family="Times,serif" font-size="14.00">A / timeout </text>
<text text-anchor="middle" x="292.94" y="-538.2" font-family="Times,serif" font-size="14.00"> PA / timeout</text>
</g>
<!-- s7 -->
<g id="node8" class="node">
<title>s7</title>
<ellipse fill="none" stroke="red" cx="170.47" cy="-498" rx="76.48" ry="18"/>
<text text-anchor="middle" x="170.47" y="-493.8" font-family="Times,serif" font-size="14.00">CLOSE_WAIT2</text>
</g>
<!-- s1&#45;&gt;s7 -->
<g id="edge6" class="edge">
<title>s1-&gt;s7</title>
<path fill="none" stroke="black" d="M76.46,-585.76C66.75,-571 56.92,-549.53 68.02,-534 74.9,-524.38 84.58,-517.38 95.28,-512.29"/>
<polygon fill="black" stroke="black" points="96.47,-515.58 104.38,-508.54 93.8,-509.11 96.47,-515.58"/>
<text text-anchor="middle" x="98.75" y="-546.6" font-family="Times,serif" font-size="14.00">F / timeout</text>
</g>
<!-- s2&#45;&gt;s2 -->
<g id="edge7" class="edge">
<title>s2-&gt;s2</title>
<path fill="none" stroke="black" d="M143.89,-356C166.41,-356.42 184.95,-352.15 184.95,-343.2 184.95,-335.79 172.24,-331.59 155.08,-330.6"/>
<polygon fill="black" stroke="black" points="155.47,-327.11 145.41,-330.43 155.34,-334.11 155.47,-327.11"/>
<text text-anchor="middle" x="207.51" y="-364.2" font-family="Times,serif" font-size="14.00">A / R </text>
<text text-anchor="middle" x="207.51" y="-347.4" font-family="Times,serif" font-size="14.00"> SA / R </text>
<text text-anchor="middle" x="207.51" y="-330.6" font-family="Times,serif" font-size="14.00"> FA / R </text>
<text text-anchor="middle" x="207.51" y="-313.8" font-family="Times,serif" font-size="14.00"> PA / R</text>
</g>
<!-- s3&#45;&gt;s0 -->
<g id="edge9" class="edge">
<title>s3-&gt;s0</title>
<path fill="none" stroke="black" d="M343.83,-516.22C345.92,-540.1 350.59,-584.5 358.86,-621.6 365.96,-653.4 377.7,-688.91 386.17,-712.79"/>
<polygon fill="black" stroke="black" points="382.84,-713.87 389.53,-722.09 389.43,-711.5 382.84,-713.87"/>
<text text-anchor="middle" x="397.17" y="-607.8" font-family="Times,serif" font-size="14.00">R / timeout </text>
<text text-anchor="middle" x="397.17" y="-591" font-family="Times,serif" font-size="14.00"> RA / timeout</text>
</g>
<!-- s4 -->
<g id="node5" class="node">
<title>s4</title>
<ellipse fill="none" stroke="black" cx="457.47" cy="-18" rx="27" ry="18"/>
<text text-anchor="middle" x="457.47" y="-13.8" font-family="Times,serif" font-size="14.00">s4</text>
</g>
<!-- s3&#45;&gt;s4 -->
<g id="edge8" class="edge">
<title>s3-&gt;s4</title>
<path fill="none" stroke="black" d="M339.22,-479.71C328.26,-416.12 298.61,-191.67 396.47,-54 403.19,-44.55 413.33,-37.29 423.41,-31.9"/>
<polygon fill="black" stroke="black" points="424.89,-35.07 432.4,-27.6 421.87,-28.76 424.89,-35.07"/>
<text text-anchor="middle" x="350.38" y="-279" font-family="Times,serif" font-size="14.00">S / A </text>
<text text-anchor="middle" x="350.38" y="-262.2" font-family="Times,serif" font-size="14.00"> SA / A</text>
</g>
<!-- s6 -->
<g id="node7" class="node">
<title>s6</title>
<ellipse fill="none" stroke="green" cx="441.47" cy="-343.2" rx="71.65" ry="18"/>
<text text-anchor="middle" x="441.47" y="-339" font-family="Times,serif" font-size="14.00">CLOSE_WAIT</text>
</g>
<!-- s3&#45;&gt;s6 -->
<g id="edge10" class="edge">
<title>s3-&gt;s6</title>
<path fill="none" stroke="green" d="M341.41,-479.51C340.95,-457.79 343.09,-420.49 360.41,-394.8 368.91,-382.2 381.72,-372.13 394.65,-364.4"/>
<polygon fill="green" stroke="green" points="396.12,-367.59 403.17,-359.68 392.73,-361.46 396.12,-367.59"/>
<text text-anchor="middle" x="397.94" y="-432.6" font-family="Times,serif" font-size="14.00">F / timeout </text>
<text text-anchor="middle" x="397.94" y="-415.8" font-family="Times,serif" font-size="14.00"> FA / timeout</text>
</g>
<!-- s4&#45;&gt;s0 -->
<g id="edge13" class="edge">
<title>s4-&gt;s0</title>
<path fill="none" stroke="black" d="M484.47,-21.22C524.42,-25.13 596.32,-34.69 612.47,-54 647.45,-95.81 634.56,-507.77 631.47,-516 594.79,-613.74 488.42,-687.5 432.22,-720.9"/>
<polygon fill="black" stroke="black" points="430.52,-717.84 423.65,-725.9 434.05,-723.89 430.52,-717.84"/>
<text text-anchor="middle" x="674.09" y="-432.6" font-family="Times,serif" font-size="14.00">R / timeout </text>
<text text-anchor="middle" x="674.09" y="-415.8" font-family="Times,serif" font-size="14.00"> RA / timeout</text>
</g>
<!-- s5 -->
<g id="node6" class="node">
<title>s5</title>
<ellipse fill="none" stroke="black" cx="570.47" cy="-214.8" rx="27" ry="18"/>
<text text-anchor="middle" x="570.47" y="-210.6" font-family="Times,serif" font-size="14.00">s5</text>
</g>
<!-- s4&#45;&gt;s5 -->
<g id="edge11" class="edge">
<title>s4-&gt;s5</title>
<path fill="none" stroke="black" d="M457.41,-36.25C457.63,-71.61 459.93,-150.73 475.91,-171.6 488.9,-188.56 500.95,-180.94 520.47,-189.6 526.57,-192.3 533.03,-195.31 539.2,-198.27"/>
<polygon fill="black" stroke="black" points="537.32,-201.25 547.85,-202.46 540.37,-194.95 537.32,-201.25"/>
<text text-anchor="middle" x="515.19" y="-133.8" font-family="Times,serif" font-size="14.00">S / timeout </text>
<text text-anchor="middle" x="515.19" y="-117" font-family="Times,serif" font-size="14.00"> SA / timeout </text>
<text text-anchor="middle" x="515.19" y="-100.2" font-family="Times,serif" font-size="14.00"> F / timeout </text>
<text text-anchor="middle" x="515.19" y="-83.4" font-family="Times,serif" font-size="14.00"> FA / timeout</text>
</g>
<!-- s4&#45;&gt;s6 -->
<g id="edge12" class="edge">
<title>s4-&gt;s6</title>
<path fill="none" stroke="black" d="M456.45,-36.45C456.12,-42.05 455.78,-48.29 455.47,-54 450.44,-149.17 445.16,-262.05 442.77,-313.76"/>
<polygon fill="black" stroke="black" points="439.29,-313.32 442.33,-323.47 446.28,-313.64 439.29,-313.32"/>
<text text-anchor="middle" x="486.16" y="-227.4" font-family="Times,serif" font-size="14.00">A / timeout </text>
<text text-anchor="middle" x="486.16" y="-210.6" font-family="Times,serif" font-size="14.00"> P / timeout </text>
<text text-anchor="middle" x="486.16" y="-193.8" font-family="Times,serif" font-size="14.00"> PA / timeout</text>
</g>
<!-- s5&#45;&gt;s0 -->
<g id="edge16" class="edge">
<title>s5-&gt;s0</title>
<path fill="none" stroke="black" d="M571.16,-233C572.67,-285.31 572.88,-446.31 525.47,-567.6 501.91,-627.88 451.4,-685.59 421.05,-716.74"/>
<polygon fill="black" stroke="black" points="418.68,-714.16 414.12,-723.73 423.65,-719.09 418.68,-714.16"/>
<text text-anchor="middle" x="589.31" y="-502.2" font-family="Times,serif" font-size="14.00">R / timeout </text>
<text text-anchor="middle" x="589.31" y="-485.4" font-family="Times,serif" font-size="14.00"> RA / timeout</text>
</g>
<!-- s5&#45;&gt;s4 -->
<g id="edge14" class="edge">
<title>s5-&gt;s4</title>
<path fill="none" stroke="black" d="M574.19,-196.5C579.97,-164.64 587.3,-96.11 554.47,-54 540.36,-35.89 516.04,-27.14 495.28,-22.92"/>
<polygon fill="black" stroke="black" points="496.15,-19.52 485.7,-21.27 494.96,-26.42 496.15,-19.52"/>
<text text-anchor="middle" x="593.6" y="-108.6" font-family="Times,serif" font-size="14.00">S / A</text>
</g>
<!-- s8 -->
<g id="node9" class="node">
<title>s8</title>
<ellipse fill="none" stroke="black" cx="756.47" cy="-18" rx="27" ry="18"/>
<text text-anchor="middle" x="756.47" y="-13.8" font-family="Times,serif" font-size="14.00">s8</text>
</g>
<!-- s5&#45;&gt;s8 -->
<g id="edge15" class="edge">
<title>s5-&gt;s8</title>
<path fill="none" stroke="black" d="M586.73,-200.18C595.22,-192.45 605.3,-182.22 612.47,-171.6 644.31,-124.47 621.76,-93.25 662.91,-54 678.26,-39.36 700.3,-30.72 719.13,-25.69"/>
<polygon fill="black" stroke="black" points="719.69,-29.15 728.59,-23.42 718.05,-22.35 719.69,-29.15"/>
<text text-anchor="middle" x="698.69" y="-108.6" font-family="Times,serif" font-size="14.00">SA / timeout</text>
</g>
<!-- s6&#45;&gt;s0 -->
<g id="edge18" class="edge">
<title>s6-&gt;s0</title>
<path fill="none" stroke="black" d="M442.86,-361.57C445.97,-405.51 452.06,-524.5 435.47,-621.6 429.97,-653.83 417.47,-689.26 408.1,-713.01"/>
<polygon fill="black" stroke="black" points="404.86,-711.68 404.36,-722.26 411.35,-714.3 404.86,-711.68"/>
<text text-anchor="middle" x="483.09" y="-555" font-family="Times,serif" font-size="14.00">R / timeout </text>
<text text-anchor="middle" x="483.09" y="-538.2" font-family="Times,serif" font-size="14.00"> RA / timeout</text>
</g>
<!-- s6&#45;&gt;s4 -->
<g id="edge17" class="edge">
<title>s6-&gt;s4</title>
<path fill="none" stroke="black" d="M432.16,-325.11C421.94,-305.31 406.19,-271.38 400.08,-240 386.19,-168.74 421.55,-86.34 442.8,-45.2"/>
<polygon fill="black" stroke="black" points="445.8,-47.01 447.4,-36.54 439.62,-43.73 445.8,-47.01"/>
<text text-anchor="middle" x="421.27" y="-219" font-family="Times,serif" font-size="14.00">S / A </text>
<text text-anchor="middle" x="421.27" y="-202.2" font-family="Times,serif" font-size="14.00"> SA / A</text>
</g>
<!-- s6&#45;&gt;s5 -->
<g id="edge19" class="edge">
<title>s6-&gt;s5</title>
<path fill="none" stroke="black" d="M444.31,-324.81C448.22,-306.03 457,-276.36 475.41,-258 490.69,-242.78 500.74,-248.7 520.47,-240 526.58,-237.31 533.04,-234.3 539.21,-231.35"/>
<polygon fill="black" stroke="black" points="540.38,-234.67 547.85,-227.16 537.33,-228.37 540.38,-234.67"/>
<text text-anchor="middle" x="512.94" y="-279" font-family="Times,serif" font-size="14.00">F / timeout </text>
<text text-anchor="middle" x="512.94" y="-262.2" font-family="Times,serif" font-size="14.00"> FA / timeout</text>
</g>
<!-- s7&#45;&gt;s0 -->
<g id="edge20" class="edge">
<title>s7-&gt;s0</title>
<path fill="none" stroke="black" d="M201.94,-514.77C210.82,-520.12 220.06,-526.63 227.47,-534 259.99,-566.33 253.81,-585.41 281.97,-621.6 309.57,-657.07 346.3,-693.71 370.63,-716.8"/>
<polygon fill="black" stroke="black" points="368.21,-719.33 377.89,-723.63 373.01,-714.23 368.21,-719.33"/>
<text text-anchor="middle" x="315.22" y="-607.8" font-family="Times,serif" font-size="14.00">S / RA </text>
<text text-anchor="middle" x="315.22" y="-591" font-family="Times,serif" font-size="14.00"> R / timeout</text>
</g>
<!-- s7&#45;&gt;s2 -->
<g id="edge21" class="edge">
<title>s7-&gt;s2</title>
<path fill="none" stroke="black" d="M160.66,-479.77C145.57,-453.26 116.54,-402.27 98.7,-370.94"/>
<polygon fill="black" stroke="black" points="101.85,-369.41 93.86,-362.45 95.77,-372.87 101.85,-369.41"/>
<text text-anchor="middle" x="172.01" y="-449.4" font-family="Times,serif" font-size="14.00">A / R </text>
<text text-anchor="middle" x="172.01" y="-432.6" font-family="Times,serif" font-size="14.00"> SA / R </text>
<text text-anchor="middle" x="172.01" y="-415.8" font-family="Times,serif" font-size="14.00"> FA / R </text>
<text text-anchor="middle" x="172.01" y="-399" font-family="Times,serif" font-size="14.00"> PA / R</text>
</g>
<!-- s8&#45;&gt;s0 -->
<g id="edge23" class="edge">
<title>s8-&gt;s0</title>
<path fill="none" stroke="black" d="M782.47,-23.24C800.67,-27.66 823.91,-36.52 836.47,-54 878.06,-111.91 850.47,-142.51 850.47,-213.8 850.47,-604.6 850.47,-604.6 850.47,-604.6 850.47,-687.2 571.23,-723.89 450.74,-735.88"/>
<polygon fill="black" stroke="black" points="450.71,-732.36 441.1,-736.81 451.39,-739.33 450.71,-732.36"/>
<text text-anchor="middle" x="888.78" y="-432.6" font-family="Times,serif" font-size="14.00">R / timeout </text>
<text text-anchor="middle" x="888.78" y="-415.8" font-family="Times,serif" font-size="14.00"> RA / timeout</text>
</g>
<!-- s8&#45;&gt;s5 -->
<g id="edge22" class="edge">
<title>s8-&gt;s5</title>
<path fill="none" stroke="black" d="M756.31,-36.45C755.61,-72.19 752.08,-151.97 734.47,-171.6 717.84,-190.15 651.36,-202.63 608.32,-208.95"/>
<polygon fill="black" stroke="black" points="608.04,-205.46 598.63,-210.32 609.02,-212.39 608.04,-205.46"/>
<text text-anchor="middle" x="795.09" y="-159" font-family="Times,serif" font-size="14.00">S / timeout </text>
<text text-anchor="middle" x="795.09" y="-142.2" font-family="Times,serif" font-size="14.00"> A / timeout </text>
<text text-anchor="middle" x="795.09" y="-125.4" font-family="Times,serif" font-size="14.00"> SA / timeout </text>
<text text-anchor="middle" x="795.09" y="-108.6" font-family="Times,serif" font-size="14.00"> F / timeout </text>
<text text-anchor="middle" x="795.09" y="-91.8" font-family="Times,serif" font-size="14.00"> FA / timeout </text>
<text text-anchor="middle" x="795.09" y="-75" font-family="Times,serif" font-size="14.00"> P / timeout </text>
<text text-anchor="middle" x="795.09" y="-58.2" font-family="Times,serif" font-size="14.00"> PA / timeout</text>
</g>
<!-- __start0 -->
<g id="node10" class="node">
<title>__start0</title>
</g>
<!-- __start0&#45;&gt;s0 -->
<g id="edge24" class="edge">
<title>__start0-&gt;s0</title>
<path fill="none" stroke="black" d="M396.47,-812.15C396.47,-810.99 396.47,-790.03 396.47,-771.42"/>
<polygon fill="black" stroke="black" points="399.97,-771.56 396.47,-761.56 392.97,-771.56 399.97,-771.56"/>
</g>
</g>
</svg>