<svg width="501pt" height="519pt" viewBox="0.00 0.00 500.78 519.24" xmlns="http://www.w3.org/2000/svg" xmlns:xlink="http://www.w3.org/1999/xlink">
<g id="graph0" class="graph" transform="scale(1 1) rotate(0) translate(4 515.24)">
<title>g</title>
<polygon fill="white" stroke="none" points="-4,4 -4,-515.24 496.78,-515.24 496.78,4 -4,4"/>
<!-- s0 -->
<g id="node1" class="node">
<title>s0</title>
<ellipse fill="none" stroke="green" cx="248.47" cy="-454.8" rx="44.29" ry="18"/>
<text text-anchor="middle" x="248.47" y="-450.6" font-family="Times,serif" font-size="14.00">LISTEN</text>
</g>
<!-- s0&#45;&gt;s0 -->
<g id="edge3" class="edge">
<title>s0-&gt;s0</title>
<path fill="none" stroke="black" d="M290.1,-461.61C301.79,-461.31 310.77,-459.04 310.77,-454.8 310.77,-452.08 307.08,-450.17 301.36,-449.08"/>
<polygon fill="black" stroke="black" points="301.9,-445.61 291.61,-448.14 301.23,-452.58 301.9,-445.61"/>
<text text-anchor="middle" x="329.83" y="-450.6" font-family="Times,serif" font-size="14.00">FA / R</text>
</g>
<!-- s1 -->
<g id="node2" class="node">
<title>s1</title>
<ellipse fill="none" stroke="red" cx="248.47" cy="-349.2" rx="49.12" ry="18"/>
<text text-anchor="middle" x="248.47" y="-345" font-family="Times,serif" font-size="14.00">LISTEN2</text>
</g>
<!-- s0&#45;&gt;s1 -->
<g id="edge2" class="edge">
<title>s0-&gt;s1</title>
<path fill="none" stroke="black" d="M205.61,-449.5C185.68,-445.11 163.72,-436.32 151.41,-418.8 142.83,-406.58 142.83,-397.42 151.41,-385.2 160.78,-371.86 175.76,-363.58 191.16,-358.45"/>
<polygon fill="black" stroke="black" points="191.74,-361.93 200.38,-355.8 189.81,-355.2 191.74,-361.93"/>
<text text-anchor="middle" x="188.94" y="-406.2" font-family="Times,serif" font-size="14.00">A / timeout </text>
<text text-anchor="middle" x="188.94" y="-389.4" font-family="Times,serif" font-size="14.00"> PA / timeout</text>
</g>
<!-- s2 -->
<g id="node3" class="node">
<title>s2</title>
<ellipse fill="none" stroke="green" cx="294.47" cy="-260.4" rx="60.94" ry="18"/>
<text text-anchor="middle" x="294.47" y="-256.2" font-family="Times,serif" font-size="14.00">SYN_RECV</text>
</g>
<!-- s0&#45;&gt;s2 -->
<g id="edge1" class="edge">
<title>s0-&gt;s2</title>
<path fill="none" stroke="green" d="M287.4,-445.87C302.24,-440.74 317.68,-432.38 326.47,-418.8 337.95,-401.07 332,-340.77 316.47,-296.4 315.52,-293.67 314.32,-290.94 312.98,-288.27"/>
<polygon fill="green" stroke="green" points="316.08,-286.65 308.06,-279.73 310.02,-290.14 316.08,-286.65"/>
<text text-anchor="middle" x="349.75" y="-345" font-family="Times,serif" font-size="14.00">S / SA</text>
</g>
<!-- s1&#45;&gt;s0 -->
<g id="edge5" class="edge">
<title>s1-&gt;s0</title>
<path fill="none" stroke="black" d="M248.47,-367.68C248.47,-383.45 248.47,-406.95 248.47,-425.42"/>
<polygon fill="black" stroke="black" points="244.97,-425.18 248.47,-435.18 251.97,-425.18 244.97,-425.18"/>
<text text-anchor="middle" x="286.78" y="-406.2" font-family="Times,serif" font-size="14.00">R / timeout </text>
<text text-anchor="middle" x="286.78" y="-389.4" font-family="Times,serif" font-size="14.00"> RA / timeout</text>
</g>
<!-- s1&#45;&gt;s2 -->
<g id="edge4" class="edge">
<title>s1-&gt;s2</title>
<path fill="none" stroke="black" d="M257.56,-331.05C263.99,-318.92 272.73,-302.42 280.1,-288.52"/>
<polygon fill="black" stroke="black" points="283.1,-290.33 284.7,-279.85 276.92,-287.05 283.1,-290.33"/>
<text text-anchor="middle" x="293.88" y="-300.6" font-family="Times,serif" font-size="14.00">S / SA</text>
</g>
<!-- s3 -->
<g id="node4" class="node">
<title>s3</title>
<ellipse fill="none" stroke="red" cx="83.47" cy="-25.2" rx="83.47" ry="18"/>
<text text-anchor="middle" x="83.47" y="-21" font-family="Times,serif" font-size="14.00">UNRESPONSIVE</text>
</g>
<!-- s2&#45;&gt;s3 -->
<g id="edge9" class="edge">
<title>s2-&gt;s3</title>
<path fill="none" stroke="black" d="M234.13,-257.08C176.02,-251.21 91.25,-232.23 51.35,-172.8 26.82,-136.26 48.64,-84.12 66.33,-52.87"/>
<polygon fill="black" stroke="black" points="69.25,-54.82 71.33,-44.43 63.22,-51.25 69.25,-54.82"/>
<text text-anchor="middle" x="70.41" y="-150.6" font-family="Times,serif" font-size="14.00">FA / R</text>
</g>
<!-- s4 -->
<g id="node5" class="node">
<title>s4</title>
<ellipse fill="none" stroke="green" cx="170.47" cy="-154.8" rx="71.65" ry="18"/>
<text text-anchor="middle" x="170.47" y="-150.6" font-family="Times,serif" font-size="14.00">CLOSE_WAIT</text>
</g>
<!-- s2&#45;&gt;s4 -->
<g id="edge8" class="edge">
<title>s2-&gt;s4</title>
<path fill="none" stroke="green" d="M246.94,-248.79C231.52,-243.5 215.25,-235.71 203.02,-224.4 191.38,-213.63 183.49,-197.83 178.4,-184.11"/>
<polygon fill="green" stroke="green" points="181.73,-183.03 175.24,-174.66 175.1,-185.26 181.73,-183.03"/>
<text text-anchor="middle" x="233.75" y="-203.4" font-family="Times,serif" font-size="14.00">F / timeout</text>
</g>
<!-- s5 -->
<g id="node6" class="node">
<title>s5</title>
<ellipse fill="none" stroke="black" cx="297.47" cy="-25.2" rx="27" ry="18"/>
<text text-anchor="middle" x="297.47" y="-21" font-family="Times,serif" font-size="14.00">s5</text>
</g>
<!-- s2&#45;&gt;s5 -->
<g id="edge6" class="edge">
<title>s2-&gt;s5</title>
<path fill="none" stroke="black" d="M292.64,-242.17C290.87,-224.72 288.34,-196.92 287.35,-172.8 285.66,-131.58 290.14,-83.93 293.68,-54.43"/>
<polygon fill="black" stroke="black" points="297.11,-55.19 294.88,-44.84 290.16,-54.33 297.11,-55.19"/>
<text text-anchor="middle" x="306.41" y="-150.6" font-family="Times,serif" font-size="14.00">S / RA</text>
</g>
<!-- s6 -->
<g id="node7" class="node">
<title>s6</title>
<ellipse fill="none" stroke="black" cx="361.47" cy="-154.8" rx="27" ry="18"/>
<text text-anchor="middle" x="361.47" y="-150.6" font-family="Times,serif" font-size="14.00">s6</text>
</g>
<!-- s2&#45;&gt;s6 -->
<g id="edge7" class="edge">
<title>s2-&gt;s6</title>
<path fill="none" stroke="black" d="M295.88,-241.98C297.79,-227.23 302.28,-206.12 312.86,-190.8 317.66,-183.86 324.29,-177.8 331.12,-172.77"/>
<polygon fill="black" stroke="black" points="332.79,-175.86 339.15,-167.39 328.89,-170.05 332.79,-175.86"/>
<text text-anchor="middle" x="351.17" y="-211.8" font-family="Times,serif" font-size="14.00">R / timeout </text>
<text text-anchor="middle" x="351.17" y="-195" font-family="Times,serif" font-size="14.00"> RA / timeout</text>
</g>
<!-- s3&#45;&gt;s3 -->
<g id="edge10" class="edge">
<title>s3-&gt;s3</title>
<path fill="none" stroke="black" d="M143.89,-38C166.41,-38.42 184.95,-34.15 184.95,-25.2 184.95,-17.79 172.24,-13.59 155.08,-12.6"/>
<polygon fill="black" stroke="black" points="155.47,-9.11 145.41,-12.43 155.34,-16.11 155.47,-9.11"/>
<text text-anchor="middle" x="207.51" y="-37.8" font-family="Times,serif" font-size="14.00">A / R </text>
<text text-anchor="middle" x="207.51" y="-21" font-family="Times,serif" font-size="14.00"> FA / R </text>
<text text-anchor="middle" x="207.51" y="-4.2" font-family="Times,serif" font-size="14.00"> PA / R</text>
</g>
<!-- s4&#45;&gt;s3 -->
<g id="edge12" class="edge">
<title>s4-&gt;s3</title>
<path fill="none" stroke="black" d="M139.03,-138.34C130.76,-133.07 122.46,-126.52 116.35,-118.8 101.56,-100.09 93.12,-74.21 88.5,-54.56"/>
<polygon fill="black" stroke="black" points="91.98,-54.07 86.47,-45.01 85.13,-55.52 91.98,-54.07"/>
<text text-anchor="middle" x="138.91" y="-106.2" font-family="Times,serif" font-size="14.00">A / R </text>
<text text-anchor="middle" x="138.91" y="-89.4" font-family="Times,serif" font-size="14.00"> FA / R </text>
<text text-anchor="middle" x="138.91" y="-72.6" font-family="Times,serif" font-size="14.00"> PA / R</text>
</g>
<!-- s4&#45;&gt;s5 -->
<g id="edge11" class="edge">
<title>s4-&gt;s5</title>
<path fill="none" stroke="black" d="M171.81,-136.63C174.14,-117.73 180.53,-87.48 197.97,-68.4 198.59,-67.72 235.85,-52.01 264.59,-39.96"/>
<polygon fill="black" stroke="black" points="265.83,-43.24 273.7,-36.14 263.12,-36.78 265.83,-43.24"/>
<text text-anchor="middle" x="231.22" y="-97.8" font-family="Times,serif" font-size="14.00">S / RA </text>
<text text-anchor="middle" x="231.22" y="-81" font-family="Times,serif" font-size="14.00"> R / timeout</text>
</g>
<!-- s5&#45;&gt;s2 -->
<g id="edge13" class="edge">
<title>s5-&gt;s2</title>
<path fill="none" stroke="black" d="M324.31,-28.7C350.53,-32.63 389.59,-42.68 411.47,-68.4 472.46,-140.08 461.3,-191.38 435.47,-224.4 425.88,-236.66 392.75,-245.24 361.02,-250.83"/>
<polygon fill="black" stroke="black" points="360.68,-247.34 351.39,-252.44 361.83,-254.24 360.68,-247.34"/>
<text text-anchor="middle" x="474.49" y="-150.6" font-family="Times,serif" font-size="14.00">S / SA</text>
</g>
<!-- s5&#45;&gt;s5 -->
<g id="edge14" class="edge">
<title>s5-&gt;s5</title>
<path fill="none" stroke="black" d="M318.3,-37.22C330.75,-39.9 342.47,-35.89 342.47,-25.2 342.47,-17.94 337.06,-13.76 329.68,-12.67"/>
<polygon fill="black" stroke="black" points="329.65,-9.16 319.82,-13.11 329.96,-16.16 329.65,-9.16"/>
<text text-anchor="middle" x="365.04" y="-37.8" font-family="Times,serif" font-size="14.00">A / R </text>
<text text-anchor="middle" x="365.04" y="-21" font-family="Times,serif" font-size="14.00"> FA / R </text>
<text text-anchor="middle" x="365.04" y="-4.2" font-family="Times,serif" font-size="14.00"> PA / R</text>
</g>
<!-- s6&#45;&gt;s2 -->
<g id="edge15" class="edge">
<title>s6-&gt;s2</title>
<path fill="none" stroke="black" d="M376.53,-170.09C381.67,-175.96 386.79,-183.16 389.47,-190.8 394.42,-204.89 398.01,-212.15 389.47,-224.4 382.01,-235.11 370.88,-242.54 358.85,-247.71"/>
<polygon fill="black" stroke="black" points="357.68,-244.41 349.52,-251.17 360.12,-250.97 357.68,-244.41"/>
<text text-anchor="middle" x="412.9" y="-203.4" font-family="Times,serif" font-size="14.00">S / SA</text>
</g>
<!-- s6&#45;&gt;s5 -->
<g id="edge16" class="edge">
<title>s6-&gt;s5</title>
<path fill="none" stroke="black" d="M353.24,-137.38C342.48,-115.94 323.53,-78.15 310.74,-52.65"/>
<polygon fill="black" stroke="black" points="313.97,-51.28 306.36,-43.91 307.71,-54.42 313.97,-51.28"/>
<text text-anchor="middle" x="375.04" y="-97.8" font-family="Times,serif" font-size="14.00">F / timeout </text>
<text text-anchor="middle" x="375.04" y="-81" font-family="Times,serif" font-size="14.00"> FA / R</text>
</g>
<!-- __start0 -->
<g id="node8" class="node">
<title>__start0</title>
</g>
<!-- __start0&#45;&gt;s0 -->
<g id="edge17" class="edge">
<title>__start0-&gt;s0</title>
<path fill="none" stroke="black" d="M248.47,-509.65C248.47,-508.18 248.47,-496.59 248.47,-484.53"/>
<polygon fill="black" stroke="black" points="251.97,-484.66 248.47,-474.66 244.97,-484.66 251.97,-484.66"/>
</g>
</g>
</svg>